<?xml version="1.0" encoding="UTF-8" standalone="no"?>
<!-- Uploaded to: SVG Repo, www.svgrepo.com, Transformed by: SVG Repo Mixer Tools -->

<svg
   width="256px"
   height="256px"
   viewBox="-6.4 -6.4 76.80 76.80"
   aria-hidden="true"
   role="img"
   class="iconify iconify--emojione-monotone"
   preserveAspectRatio="xMidYMid meet"
   fill="#21262e"
   stroke="#21262e"
   stroke-width="0.00064"
   version="1.1"
   id="svg1"
   sodipodi:docname="iconTest.svg"
   xml:space="preserve"
   inkscape:version="1.3.2 (1:1.3.2+202311252150+091e20ef0f)"
   inkscape:export-filename="adapter_icon.png"
   inkscape:export-xdpi="96"
   inkscape:export-ydpi="96"
   xmlns:inkscape="http://www.inkscape.org/namespaces/inkscape"
   xmlns:sodipodi="http://sodipodi.sourceforge.net/DTD/sodipodi-0.dtd"
   xmlns="http://www.w3.org/2000/svg"
   xmlns:svg="http://www.w3.org/2000/svg"><defs
     id="defs1" /><sodipodi:namedview
     id="namedview1"
     pagecolor="#505050"
     bordercolor="#ffffff"
     borderopacity="1"
     inkscape:showpageshadow="0"
     inkscape:pageopacity="0"
     inkscape:pagecheckerboard="1"
     inkscape:deskcolor="#505050"
     inkscape:zoom="2.2456165"
     inkscape:cx="85.945218"
     inkscape:cy="143.61312"
     inkscape:window-width="1920"
     inkscape:window-height="1008"
     inkscape:window-x="0"
     inkscape:window-y="0"
     inkscape:window-maximized="1"
     inkscape:current-layer="svg1" /><g
     id="SVGRepo_bgCarrier"
     stroke-width="0" /><g
     id="SVGRepo_tracerCarrier"
     stroke-linecap="round"
     stroke-linejoin="round"
     stroke="#CCCCCC"
     stroke-width="0.128" /><g
     id="SVGRepo_iconCarrier"><path
       d="m 32.367882,-2.720327 c -18.706504,0 -33.872231,15.165727 -33.872231,33.872231 0,18.706505 15.165727,33.872232 33.872231,33.872232 18.706505,0 33.872232,-15.165727 33.872232,-33.872232 0,-18.706504 -15.165727,-33.872231 -33.872232,-33.872231 m -5.184709,42.364 c 1.485861,1.830229 3.373674,2.744779 5.665695,2.744779 2.346216,0 4.136928,-0.784706 5.369878,-2.355249 0.681961,-0.844547 1.246498,-2.111369 1.695869,-3.800464 h 6.800415 c -0.587118,3.571262 -2.086529,6.475241 -4.495974,8.713067 -2.412832,2.236696 -5.499721,3.355609 -9.268571,3.355609 -4.661949,0 -8.326924,-1.510702 -10.992669,-4.534363 -2.668002,-3.036081 -4.002568,-7.201236 -4.002568,-12.49095 0,-5.71989 1.517476,-10.128926 4.551298,-13.224848 2.639776,-2.697359 5.996515,-4.045473 10.071344,-4.045473 5.453429,0 9.440191,1.807648 11.961414,5.424073 1.393278,2.030076 2.140725,4.066926 2.242342,6.11168 h -6.845578 c -0.436952,-1.571672 -0.994715,-2.754942 -1.675547,-3.555456 -1.2194,-1.422633 -3.028177,-2.135079 -5.422944,-2.135079 -2.438801,0 -4.361614,1.004876 -5.770699,3.01237 -1.406827,2.007494 -2.11024,4.849375 -2.11024,8.523383 0,3.674008 0.742931,6.425562 2.226535,8.256921"
       fill="#21262e"
       id="path1"
       style="stroke-width:0.000722608" /><path
       d="m 45.555441,47.329823 v -7.544069 h -0.574654 a 1.723965,1.723965 0 0 1 0,-3.44793 h 14.941025 a 1.723965,1.723965 0 0 1 0,3.44793 h -0.574654 v 7.544069 l 8.426739,13.240049 c 2.190585,3.443332 -0.28273,7.948625 -4.365078,7.948625 H 41.493781 c -4.082349,0 -6.555663,-4.505293 -4.365079,-7.948625 z M 40.038755,62.42026 a 1.7239647,1.7239647 0 0 0 1.455026,2.650309 H 63.408819 A 1.7239647,1.7239647 0 0 0 64.863844,62.42026 L 62.162967,58.17471 H 42.739632 Z M 55.899229,39.785754 h -6.895858 v 8.045168 c 0,0.328703 -0.09195,0.65051 -0.268939,0.926344 l -3.799618,5.969515 h 15.032971 l -3.799617,-5.969515 a 1.7147702,1.7147702 0 0 1 -0.268939,-0.926344 z"
       id="path1-5"
       style="fill:#0065a9;fill-opacity:1;stroke:#000000;stroke-width:0.00147112;stroke-opacity:1" /></g></svg>
